# xmcd
#
# Track frame offsets:
#	150
#	34418
#	53856
#	80589
#	103588
#	127930
#	156726
#	184860
#	209496
#	235007
#	260753
#	285325
#
# Disc length: 4132 seconds
#
# Revision: 1
# Processed by: cddbd v1.5.2PL0 Copyright (c) Steve Scherf et al.
# Submitted via: audiograbber 1.83.01
#
DISCID=ae10220c
DTITLE=Various Artist - Funkymix 144
DYEAR=2011
DGENRE=Hip-Hop
TTITLE0=Black Eyed Peas - Just cant get enough (Club) 94-128 bpm
TTITLE1=Black Eyed Peas - Just cant get enough (Mixshow) 94-128 bpm
TTITLE2=Rihanna and Nicki Minaj - Raining Men 74 bpm
TTITLE3=Jeremih ft 50 Cent - Down on me Pt. 1 80 bpm
TTITLE4=Jeremih ft 50 Cent - Down on me Pt. 2 138 bpm
TTITLE5=Troop 41 - Do the John Wall 81 bpm
TTITLE6=Nelly - Gone 73 bpm
TTITLE7=Jamie Foxx - Fall for your type 136 bpm
TTITLE8=Chris Brown - No BS 86 bpm
TTITLE9=Wiz Khalifa - Black and Yellow 82 bpm
TTITLE10=New Boyz - Back seat 125 bpm
TTITLE11=LMFAO - Party Rock Anthem 130 bpm
EXTD=
EXTT0=
EXTT1=
EXTT2=
EXTT3=
EXTT4=
EXTT5=
EXTT6=
EXTT7=
EXTT8=
EXTT9=
EXTT10=
EXTT11=
PLAYORDER=
